<svg xmlns="http://www.w3.org/2000/svg" width="512" height="512" viewBox="0 0 512 512" version="1.1">
	<path d="M 243.441 65.964 C 237.501 66.616, 233.655 68.877, 230.956 73.304 C 229.343 75.951, 229.007 78.360, 229.004 87.316 C 229 98.954, 228.237 101.579, 224.439 103.023 C 222.350 103.818, 222 104.599, 222 108.475 C 222 111.537, 222.423 113, 223.309 113 C 224.029 113, 225.491 113.638, 226.559 114.419 C 228.239 115.647, 228.574 117.495, 229.053 128.169 C 229.358 134.951, 229.934 141.197, 230.333 142.049 C 230.921 143.303, 229.702 143.925, 223.946 145.306 C 220.033 146.245, 216.475 146.794, 216.040 146.525 C 215.605 146.256, 213.425 142.990, 211.195 139.268 C 201.190 122.565, 186.933 107.973, 168.149 95.212 C 157.872 88.230, 156.342 87.500, 151.972 87.500 C 146.288 87.500, 142.480 89.873, 139.536 95.249 C 137.616 98.756, 137.612 98.991, 139.363 105.740 C 140.903 111.678, 141.053 114.957, 140.439 129.189 C 139.782 144.406, 139.896 146.298, 141.854 152.747 C 144.360 160.997, 150.072 169.230, 158.502 176.744 C 164.669 182.240, 173.070 186.959, 189.332 194.063 C 198.683 198.148, 199.134 198.484, 198.529 200.929 C 196.876 207.618, 196.812 219.717, 198.396 225.902 C 199.646 230.780, 199.876 234.695, 199.394 242.871 C 196.949 284.368, 211.716 316.149, 240 330.261 C 249.478 334.989, 249.524 335, 259.770 335 C 269.913 335, 270.148 334.946, 278.770 330.607 C 283.571 328.190, 289.839 324.346, 292.698 322.063 C 303.298 313.600, 312.414 298.431, 316.733 282.070 C 318.922 273.780, 319.310 269.892, 319.639 253 C 319.869 241.164, 320.659 229.847, 321.648 224.207 C 322.988 216.568, 323.077 213.692, 322.146 208.057 C 321.524 204.286, 320.780 200.590, 320.493 199.843 C 320.128 198.892, 323.642 196.889, 332.236 193.152 C 349.009 185.857, 356.813 181.081, 364.211 173.584 C 372.508 165.175, 376.666 158.064, 378.632 148.922 C 379.998 142.566, 380.064 139.632, 379.090 128.500 C 378.106 117.244, 378.171 114.628, 379.577 109 C 381.810 100.063, 381.726 96.829, 379.169 93.237 C 376.500 89.489, 369.291 86.492, 365.007 87.349 C 359.710 88.408, 339.166 103.719, 327.981 114.944 C 319.392 123.564, 309.736 136.058, 303.297 146.882 C 303.172 147.092, 299.876 146.435, 295.973 145.423 C 289.588 143.767, 288.947 143.378, 289.584 141.541 C 289.974 140.419, 290.490 134.325, 290.731 128 C 291.175 116.349, 292.275 113, 295.655 113 C 296.602 113, 297 111.522, 297 108 C 297 103.697, 296.726 103, 295.035 103 C 291.899 103, 291 99.832, 291 88.778 C 291 80.012, 290.655 77.748, 288.750 74.020 C 286.166 68.962, 281.981 66.458, 274.750 65.642 L 270 65.107 270 70.053 C 270 74.602, 270.192 75, 272.389 75 C 273.703 75, 275.841 75.859, 277.139 76.910 C 279.320 78.675, 279.521 79.644, 279.778 89.660 C 280.136 103.595, 280.416 104.673, 284.277 107.027 C 286.075 108.123, 286.803 108.994, 285.924 108.996 C 285.058 108.998, 283.370 110.042, 282.174 111.314 C 280.238 113.376, 280 114.735, 280 123.749 C 280 133.754, 278.995 138.747, 276.687 140.214 C 276.034 140.630, 268.213 140.976, 259.307 140.985 C 239.289 141.004, 240.002 141.556, 239.996 126.027 C 239.993 117.297, 239.654 114.945, 238.011 112.250 C 236.921 110.463, 235.252 109, 234.302 109 C 233.067 109, 233.561 108.178, 236.038 106.110 L 239.500 103.220 240 91.019 C 240.464 79.708, 240.672 78.679, 242.861 76.909 C 244.159 75.859, 246.297 75, 247.611 75 C 249.771 75, 250 74.574, 250 70.559 C 250 68.116, 249.662 65.958, 249.250 65.763 C 248.838 65.567, 246.224 65.658, 243.441 65.964 M 413.417 384.599 C 406.863 398.128, 401.376 409.526, 401.224 409.927 C 400.857 410.896, 405.629 413.037, 406.412 412.255 C 406.748 411.918, 408.107 409.361, 409.431 406.572 C 410.755 403.782, 416.122 392.614, 421.358 381.752 C 430.177 363.457, 430.740 361.931, 429.004 361.002 C 427.974 360.451, 426.727 360, 426.232 360 C 425.738 360, 419.971 371.070, 413.417 384.599 M 308.032 362.940 C 306.386 366.016, 308.391 369.209, 311.716 368.810 C 315.065 368.408, 316.893 365.644, 315.394 363.250 C 313.750 360.624, 309.370 360.440, 308.032 362.940 M 109 370.493 L 109 378.113 106.777 376.557 C 100.714 372.309, 92.134 377.104, 90.019 385.922 C 87.718 395.513, 91.067 405.096, 97.324 406.824 C 101.363 407.939, 105.477 407.335, 107.092 405.389 C 108.605 403.567, 110 403.620, 110 405.500 C 110 406.502, 111.002 407, 113.020 407 L 116.039 407 115.770 385.250 L 115.500 363.500 112.250 363.187 L 109 362.873 109 370.493 M 265.667 363.667 C 265.300 364.033, 265 373.933, 265 385.667 L 265 407 268 407 L 271 407 271 396.089 L 271 385.178 274.077 382.589 C 277.629 379.600, 279.235 379.377, 281.429 381.571 C 282.682 382.825, 283 385.566, 283 395.135 L 283 407.127 286.093 406.813 L 289.185 406.500 289.140 393 C 289.095 379.726, 289.051 379.462, 286.491 377.250 C 283.226 374.427, 278.763 374.365, 274.368 377.082 L 271 379.163 271 371.082 C 271 363.282, 270.919 363, 268.667 363 C 267.383 363, 266.033 363.300, 265.667 363.667 M 332.180 366.250 C 332.457 368.197, 333.073 368.488, 336.750 368.414 L 341 368.327 341 384.213 C 341 402.372, 341.772 405.110, 347.418 406.973 C 349.951 407.809, 351.951 407.821, 354.935 407.018 C 359.376 405.822, 359.455 405.719, 358.013 403.024 C 357.372 401.827, 356.326 401.363, 355.029 401.703 C 353.931 401.990, 351.900 401.941, 350.516 401.593 L 348 400.962 348 382.481 L 348 364 339.930 364 C 332.134 364, 331.872 364.076, 332.180 366.250 M 66.753 378.819 C 56.953 384.912, 56.008 385.764, 56.017 388.500 C 56.026 391.237, 57.004 392.105, 67.163 398.406 C 77.654 404.913, 78.376 405.206, 79.649 403.465 C 81.666 400.706, 81.404 400.193, 76.459 397.225 C 73.962 395.726, 69.691 393.134, 66.969 391.464 L 62.018 388.427 71.022 383.097 C 75.975 380.165, 80.266 377.378, 80.560 376.904 C 81.179 375.901, 79.271 371.967, 78.215 372.069 C 77.822 372.106, 72.664 375.144, 66.753 378.819 M 439.248 373.975 C 438.562 375.074, 438 376.183, 438 376.440 C 438 376.698, 442.275 379.459, 447.500 382.577 C 452.725 385.695, 457 388.395, 457 388.577 C 457 388.759, 452.725 391.459, 447.500 394.577 C 442.275 397.695, 438.014 400.528, 438.032 400.873 C 438.097 402.150, 440.901 405.197, 441.696 404.854 C 442.148 404.660, 447.127 401.644, 452.759 398.153 C 462.402 392.177, 463 391.613, 463 388.500 C 463 385.391, 462.410 384.832, 453.073 379.094 C 440.781 371.540, 440.771 371.536, 439.248 373.975 M 133.500 375.959 C 132.400 376.417, 130.158 378.211, 128.517 379.944 C 125.876 382.735, 125.494 383.921, 125.182 390.298 C 124.875 396.567, 125.137 397.954, 127.202 401 C 128.507 402.925, 130.901 405.137, 132.521 405.917 C 136.194 407.682, 142.796 407.742, 146.891 406.045 C 150.108 404.713, 150.621 403.531, 149.056 401.057 C 148.312 399.880, 147.660 399.834, 145.525 400.807 C 141.278 402.742, 136.612 402.281, 134.174 399.686 C 129.805 395.035, 131.004 394.102, 141.750 393.786 L 151.500 393.500 151.811 390.282 C 152.313 385.091, 148.697 378.189, 144.573 376.466 C 140.725 374.858, 136.598 374.670, 133.500 375.959 M 202.021 376.116 C 197.720 377.832, 196 380.085, 196 384 C 196 388.686, 198.020 390.542, 206.158 393.333 C 212.684 395.572, 214.360 397.656, 211.960 400.548 C 210.400 402.428, 203.716 402.422, 200.072 400.537 C 197.478 399.196, 197.094 399.239, 195.452 401.053 C 193.728 402.958, 193.733 403.086, 195.581 404.467 C 198.815 406.885, 205.987 407.978, 211.241 406.853 C 222.654 404.410, 223.129 392.509, 211.957 388.934 C 203.933 386.367, 203 385.793, 203 383.424 C 203 380.295, 208.211 379.226, 213.233 381.324 C 215.830 382.409, 217.088 382.512, 217.895 381.705 C 222.291 377.309, 209.934 372.959, 202.021 376.116 M 238.020 376.752 C 232.558 379.496, 229.999 384.171, 230.004 391.398 C 230.010 401.480, 235.373 407.317, 244.641 407.328 C 249.488 407.334, 255 405.298, 255 403.501 C 255 400.772, 252.287 399.767, 248.559 401.115 C 241.518 403.661, 237.043 399.696, 237.015 390.885 C 236.995 384.665, 239.822 381, 244.638 381 C 246.560 381, 249.079 381.507, 250.237 382.127 C 251.956 383.047, 252.585 382.920, 253.671 381.435 C 255.644 378.737, 255.347 378.043, 251.532 376.449 C 246.912 374.519, 242.257 374.623, 238.020 376.752 M 375.500 376.562 C 370.413 379.133, 368.556 382.682, 368.208 390.500 C 367.863 398.229, 369.579 402.368, 374.453 405.561 C 377.560 407.597, 385.512 407.859, 389.838 406.067 C 393.106 404.714, 393.626 403.538, 392.056 401.057 C 391.312 399.880, 390.660 399.834, 388.525 400.807 C 384.278 402.742, 379.612 402.281, 377.174 399.686 C 372.805 395.035, 374.004 394.102, 384.750 393.786 L 394.500 393.500 394.811 390.282 C 394.982 388.512, 394.255 385.105, 393.196 382.710 C 390.155 375.837, 382.321 373.114, 375.500 376.562 M 161.565 385.750 C 169.860 408.995, 168.787 407, 172.999 407 L 176.753 407 181.894 392.250 C 184.721 384.137, 187.026 377.134, 187.017 376.687 C 187.008 376.239, 185.559 376.014, 183.798 376.187 C 180.642 376.495, 180.546 376.662, 177.135 387.750 C 175.231 393.938, 173.383 399, 173.027 399 C 172.671 399, 170.878 393.825, 169.043 387.500 L 165.706 376 161.896 376 L 158.086 376 161.565 385.750 M 301 378.500 C 301 380.799, 301.364 381, 305.535 381 L 310.070 381 309.785 391.250 L 309.500 401.500 304.688 401.807 C 300.381 402.082, 299.909 402.345, 300.188 404.307 C 300.487 406.410, 301.003 406.512, 312.750 406.781 L 325 407.062 325 404.588 C 325 402.393, 324.522 402.080, 320.750 401.807 L 316.500 401.500 316.220 388.750 L 315.940 376 308.470 376 C 301.169 376, 301 376.056, 301 378.500 M 100.251 381.537 C 93.822 386.040, 95.863 402, 102.868 402 C 107.565 402, 109 399.362, 109 390.728 C 109 383.993, 108.743 382.934, 106.777 381.557 C 104.001 379.612, 103.003 379.609, 100.251 381.537 M 134.635 382.073 C 133.081 383.295, 132 385.141, 132 386.573 C 132 388.894, 132.285 389, 138.500 389 C 144.767 389, 145 388.910, 145 386.500 C 145 383.558, 141.789 380, 139.135 380 C 138.109 380, 136.084 380.933, 134.635 382.073 M 377.455 382.455 C 376.105 383.805, 375 385.830, 375 386.955 C 375 388.805, 375.619 389, 381.500 389 C 387.767 389, 388 388.910, 388 386.500 C 388 383.477, 384.766 380, 381.955 380 C 380.830 380, 378.805 381.105, 377.455 382.455" stroke="none" fill="black" fill-rule="evenodd"/>
</svg>